<?xml version="1.0" standalone="no"?>
<!DOCTYPE svg PUBLIC "-//W3C//DTD SVG 20010904//EN"
 "http://www.w3.org/TR/2001/REC-SVG-20010904/DTD/svg10.dtd">
<svg version="1.0" xmlns="http://www.w3.org/2000/svg"
 width="721.000000pt" height="721.000000pt" viewBox="0 0 721.000000 721.000000"
 preserveAspectRatio="xMidYMid meet">
<metadata>
Created by potrace 1.11, written by Peter Selinger 2001-2013
</metadata>
<g transform="translate(0.000000,721.000000) scale(0.100000,-0.100000)"
fill="#000000" stroke="none">
<path d="M2979 7159 c0 -24 -2 -52 -4 -63 -2 -10 -6 -53 -10 -95 -3 -42 -7
-89 -9 -106 -2 -16 -7 -64 -11 -105 -4 -41 -8 -87 -10 -103 -2 -15 -6 -62 -10
-105 -3 -42 -8 -90 -10 -107 -2 -16 -6 -59 -10 -95 -3 -36 -8 -85 -10 -110 -3
-25 -8 -70 -10 -100 -3 -30 -7 -75 -10 -100 -3 -25 -7 -67 -10 -94 -6 -75 -22
-242 -30 -306 -2 -19 -7 -66 -10 -105 -3 -38 -8 -89 -10 -112 -3 -24 -7 -62
-10 -85 -2 -24 -7 -78 -11 -122 -3 -43 -8 -85 -9 -95 -2 -9 -4 -23 -5 -31 -2
-18 3 -35 -113 351 -53 174 -126 414 -162 535 -37 120 -89 293 -116 384 -27
91 -63 208 -79 260 -75 243 -113 368 -123 408 -6 23 -14 42 -19 42 -5 0 -7 -3
-5 -8 3 -4 8 -47 12 -96 3 -49 8 -92 9 -95 2 -3 7 -46 11 -96 12 -140 12 -147
19 -205 3 -30 8 -82 11 -115 3 -33 8 -76 10 -95 2 -19 7 -62 10 -95 12 -128
20 -203 29 -295 3 -25 8 -72 11 -105 3 -33 8 -78 10 -100 2 -22 7 -71 10 -110
3 -38 8 -83 10 -100 2 -16 7 -61 10 -100 4 -38 8 -81 10 -95 2 -14 7 -59 10
-100 3 -41 8 -86 10 -100 8 -52 15 -160 11 -160 -3 0 -26 42 -51 93 -26 50
-51 97 -55 102 -4 6 -35 64 -70 130 -35 66 -79 149 -98 185 -88 165 -166 310
-237 445 -47 88 -102 191 -155 290 -15 28 -51 95 -80 150 -29 55 -65 123 -80
150 -15 28 -57 107 -94 178 -37 70 -69 127 -71 127 -3 0 5 -30 55 -189 16 -53
67 -222 114 -376 112 -371 258 -853 301 -990 18 -60 50 -164 70 -230 20 -66
43 -142 51 -169 8 -26 13 -50 11 -52 -2 -2 -33 33 -70 78 -36 46 -77 97 -90
113 -14 17 -62 75 -107 130 -45 55 -97 118 -115 140 -18 22 -66 81 -106 130
-41 50 -81 99 -91 110 -9 11 -181 221 -383 468 -201 246 -368 447 -370 447 -3
0 7 -21 22 -47 42 -75 111 -203 139 -258 13 -27 29 -57 34 -65 6 -8 55 -100
111 -205 141 -263 177 -332 209 -390 15 -27 53 -99 85 -160 32 -60 65 -123 75
-140 10 -16 40 -73 67 -125 28 -52 65 -122 83 -155 17 -33 50 -94 72 -135 22
-41 54 -100 71 -130 23 -41 26 -51 11 -39 -10 9 -109 90 -219 179 -110 90
-222 182 -250 204 -27 23 -52 43 -55 46 -3 3 -27 24 -55 45 -27 22 -52 42 -55
45 -3 3 -54 46 -115 96 -204 167 -400 328 -480 394 -145 120 -360 295 -379
310 -17 13 151 -197 267 -334 23 -27 65 -78 92 -114 53 -67 95 -111 754 -781
229 -232 485 -493 569 -580 84 -86 233 -236 330 -334 173 -175 176 -178 114
-142 -125 72 -237 117 -357 140 -16 3 -104 8 -195 10 -317 9 -432 15 -468 24
-21 6 -50 12 -66 15 -30 5 -141 36 -241 67 -117 35 -188 50 -309 63 -28 3 -28
3 -23 -41 6 -53 19 -69 117 -137 41 -29 122 -93 180 -141 58 -49 179 -148 270
-220 91 -72 174 -145 184 -161 37 -58 70 -84 134 -105 83 -28 105 -49 100 -97
-3 -21 -7 -43 -9 -51 -3 -9 12 -17 44 -26 71 -18 101 -44 105 -90 2 -21 -1
-42 -7 -48 -16 -16 -13 -27 7 -27 31 0 108 -30 130 -50 20 -19 22 -46 8 -81
-6 -13 1 -18 29 -23 54 -10 102 -36 113 -60 5 -13 5 -34 0 -55 -11 -39 -8 -43
68 -67 28 -9 62 -25 75 -34 20 -16 21 -20 9 -34 -18 -23 -6 -32 60 -45 75 -16
99 -33 98 -72 -1 -34 14 -49 50 -49 46 0 78 -28 116 -99 22 -42 35 -79 32 -93
-20 -110 -63 -232 -99 -278 -7 -9 -70 -67 -142 -130 -71 -63 -132 -117 -135
-120 -24 -27 -214 -167 -263 -194 -34 -19 -154 -71 -267 -115 -203 -79 -363
-159 -374 -186 -7 -18 11 -29 52 -31 18 -2 65 -19 104 -39 50 -26 80 -36 103
-33 28 3 34 0 43 -24 12 -32 35 -35 97 -12 78 29 94 29 106 -5 16 -45 33 -48
101 -17 44 19 60 20 75 5 9 -9 20 -9 43 1 36 15 116 15 155 0 48 -18 90 -15
126 11 49 35 75 66 221 266 120 165 136 183 168 189 19 3 54 17 78 31 49 28
141 48 262 58 47 4 87 9 89 11 7 7 70 -158 71 -183 0 -13 3 -22 8 -21 4 1 17
-1 30 -6 17 -6 22 -15 22 -42 0 -39 22 -47 40 -14 10 19 13 18 73 -22 34 -24
64 -44 66 -45 2 -1 -4 -13 -13 -25 -9 -13 -32 -45 -51 -72 -39 -53 -44 -106
-15 -137 22 -24 71 -47 105 -49 53 -4 59 -1 35 18 l-21 17 23 34 c28 42 56 46
103 14 28 -19 35 -30 35 -57 0 -32 -24 -66 -48 -66 -7 0 -12 -4 -12 -10 0 -13
65 -13 114 1 49 14 119 84 168 169 43 73 43 102 3 160 -36 52 -76 72 -138 70
-29 -2 -59 -2 -68 -1 -21 1 -33 29 -20 45 6 6 15 24 20 40 11 26 7 32 -76 114
-49 48 -100 101 -115 117 -14 17 -45 48 -67 69 -48 46 -55 71 -16 56 99 -38
203 -116 243 -182 9 -16 19 -28 22 -28 3 0 16 16 29 35 13 19 28 35 33 35 15
0 102 -50 115 -67 9 -12 8 -24 -4 -57 -9 -22 -20 -45 -25 -51 -4 -5 -8 -24 -8
-42 0 -27 7 -37 38 -57 73 -49 173 -69 227 -46 19 8 19 9 -2 9 -39 2 -53 13
-73 59 -25 56 -21 69 25 78 43 8 104 -13 175 -61 56 -38 58 -36 58 66 0 38 4
65 11 67 10 3 16 -18 12 -41 -1 -5 9 -7 21 -5 34 5 46 76 25 149 -14 47 -22
58 -57 78 -54 30 -109 32 -207 6 -46 -12 -83 -19 -83 -15 0 4 -25 20 -55 36
-50 27 -54 31 -57 69 l-3 40 -48 3 c-41 3 -54 9 -90 46 -24 23 -66 55 -95 71
-30 16 -49 32 -45 39 4 6 48 75 100 154 51 78 93 146 93 151 0 5 7 14 15 21 9
7 14 19 11 25 -2 7 0 17 4 21 5 5 11 19 13 30 1 11 12 30 23 42 34 37 86 112
77 112 -4 0 0 5 10 11 9 5 17 14 17 20 0 8 54 67 63 70 42 9 97 8 140 -5 47
-14 57 -21 67 -48 7 -18 12 -44 10 -58 -2 -20 1 -22 12 -12 8 6 17 9 20 6 7
-7 60 57 58 70 -1 5 3 12 9 15 21 14 28 91 17 191 -3 30 -8 93 -10 140 -5 89
-12 126 -29 148 -5 6 -7 13 -3 13 24 5 36 4 71 -9 22 -8 54 -20 72 -28 17 -8
36 -14 42 -14 6 0 11 -5 11 -11 0 -5 4 -8 9 -5 5 3 14 -1 21 -9 7 -8 16 -12
21 -9 5 3 9 0 9 -5 0 -6 6 -11 13 -11 16 -1 67 -46 67 -60 0 -6 6 -8 12 -4 7
4 10 4 6 0 -4 -5 2 -25 13 -46 29 -54 37 -94 44 -215 3 -44 8 -96 12 -115 9
-41 8 -145 0 -179 -4 -12 -11 -29 -18 -37 -6 -8 -8 -14 -3 -14 5 0 1 -5 -9
-11 -9 -6 -14 -16 -11 -22 4 -7 4 -9 -1 -5 -4 4 -19 -2 -33 -12 -35 -28 -52
-25 -52 8 0 15 -7 38 -16 50 -8 12 -12 22 -7 22 16 1 -48 31 -75 35 -15 2 -42
7 -60 9 -37 6 -127 -28 -117 -44 3 -5 2 -10 -4 -10 -13 0 -97 -131 -93 -144 2
-6 1 -8 -3 -4 -11 10 -58 -50 -61 -78 -1 -14 -12 -43 -23 -65 -12 -22 -21 -43
-21 -48 0 -10 73 -85 630 -652 234 -237 475 -473 535 -523 61 -51 200 -166
310 -256 110 -90 265 -218 345 -284 231 -190 246 -202 230 -180 -16 24 -321
396 -330 404 -3 3 -90 109 -194 235 -103 127 -195 239 -204 250 -10 11 -122
148 -251 305 -392 476 -349 422 -325 414 10 -4 24 -10 29 -14 10 -7 78 -44
215 -117 41 -22 170 -91 285 -153 116 -62 248 -133 295 -158 47 -24 108 -57
135 -72 28 -15 84 -45 125 -67 101 -55 169 -91 420 -225 118 -64 240 -127 270
-142 l55 -27 -30 27 c-16 14 -39 33 -50 43 -11 9 -45 36 -75 61 -30 25 -63 52
-74 60 -10 8 -33 27 -50 41 -17 14 -134 110 -261 214 -126 103 -250 205 -275
225 -25 21 -101 84 -170 140 -69 56 -138 113 -155 126 -16 14 -130 107 -252
207 -122 100 -221 183 -219 184 1 1 76 -20 167 -48 90 -27 202 -61 249 -75
146 -44 374 -114 405 -124 56 -17 529 -161 790 -240 143 -43 289 -88 325 -99
36 -12 67 -21 70 -21 10 0 -100 60 -370 203 -77 40 -186 99 -275 147 -27 15
-95 51 -150 80 -104 55 -206 109 -310 165 -33 18 -95 51 -137 74 -43 22 -113
60 -155 82 -43 23 -105 56 -138 74 -33 18 -109 58 -170 90 -60 32 -119 65
-130 72 -19 14 -18 14 10 9 17 -3 64 -8 105 -11 41 -4 86 -8 100 -10 14 -2 59
-7 100 -10 41 -3 86 -8 100 -10 14 -2 59 -7 100 -11 41 -3 86 -7 100 -9 14 -1
57 -5 95 -9 78 -7 121 -12 210 -22 33 -3 78 -8 100 -9 83 -7 181 -17 205 -20
14 -2 57 -6 95 -10 39 -3 81 -8 95 -10 14 -2 61 -6 105 -10 44 -3 91 -8 105
-10 14 -2 57 -6 95 -10 39 -3 88 -8 110 -10 102 -11 154 -16 200 -19 l50 -4
-40 13 c-49 16 -508 155 -740 224 -93 28 -197 60 -230 71 -33 11 -121 37 -195
59 -238 69 -810 244 -807 247 4 3 129 17 277 29 35 3 76 7 90 9 14 3 61 7 105
11 44 4 96 8 115 10 19 2 64 7 100 10 36 3 76 7 90 10 14 2 61 6 105 9 44 4
96 9 115 11 19 3 62 8 95 11 33 3 78 7 100 9 22 2 74 6 115 10 41 3 86 8 100
10 14 2 57 6 95 10 39 3 86 8 105 10 19 2 64 6 100 10 36 3 81 8 100 10 121
14 212 22 259 24 56 2 32 8 -59 16 -47 4 -92 9 -101 10 -8 2 -55 6 -105 10
-49 4 -97 9 -107 11 -9 1 -54 6 -100 9 -45 4 -93 8 -107 11 -14 2 -60 6 -103
10 -43 3 -86 7 -96 9 -10 2 -55 6 -102 10 -46 4 -92 9 -101 10 -9 2 -59 7
-110 11 -51 3 -95 8 -98 9 -3 2 -45 6 -95 10 -49 4 -98 9 -108 11 -10 2 -56 6
-103 9 -46 3 -93 8 -103 10 -10 2 -54 6 -97 10 -43 4 -89 8 -102 10 -12 2 -62
7 -110 10 -194 15 -210 7 294 159 252 76 493 149 534 161 125 39 224 69 235
71 36 9 781 236 784 240 3 2 -17 2 -45 -1 -58 -7 -93 -11 -194 -20 -41 -4 -91
-8 -110 -10 -19 -2 -62 -6 -95 -9 -33 -4 -73 -8 -90 -11 -16 -2 -66 -7 -110
-10 -44 -4 -91 -8 -105 -10 -14 -2 -59 -7 -100 -10 -41 -3 -86 -8 -100 -10
-32 -4 -132 -15 -195 -20 -27 -2 -75 -6 -105 -10 -30 -3 -77 -8 -105 -10 -27
-3 -70 -8 -95 -10 -25 -3 -74 -8 -110 -10 -35 -3 -76 -7 -90 -10 -14 -2 -63
-6 -110 -10 -47 -3 -92 -8 -100 -10 -8 -2 -49 -7 -90 -10 -41 -3 -90 -7 -107
-10 -18 -2 -33 -2 -33 -1 0 2 22 15 49 29 26 14 72 39 102 55 30 16 104 55
164 87 61 32 153 81 205 110 52 28 115 62 140 74 25 13 74 39 110 58 36 19
108 57 160 85 52 28 122 65 155 83 102 55 185 100 300 160 61 32 182 97 270
145 88 47 169 89 179 93 10 4 17 9 15 11 -2 3 -218 -61 -479 -141 -261 -79
-479 -146 -485 -147 -5 -1 -44 -13 -85 -26 -41 -13 -79 -24 -85 -26 -13 -2
-212 -62 -245 -74 -80 -27 -624 -190 -626 -187 -2 1 34 33 79 69 89 73 229
187 551 452 221 180 342 280 466 381 421 345 520 427 520 430 0 3 -17 -5 -37
-17 -21 -12 -51 -28 -68 -36 -16 -8 -82 -43 -145 -77 -124 -68 -354 -190 -490
-262 -47 -25 -107 -58 -135 -73 -27 -16 -115 -63 -195 -105 -296 -158 -340
-181 -554 -297 -121 -65 -221 -117 -223 -115 -2 3 106 136 285 352 9 11 35 43
57 70 21 28 42 52 45 55 3 3 55 66 116 140 61 74 268 327 461 561 193 235 354
433 358 440 7 12 -27 -12 -45 -31 -3 -3 -27 -24 -55 -45 -27 -22 -55 -44 -61
-50 -19 -17 -90 -76 -339 -280 -132 -108 -258 -212 -280 -230 -22 -19 -85 -70
-140 -115 -55 -45 -118 -96 -140 -115 -134 -110 -298 -245 -336 -275 -24 -19
-59 -49 -79 -65 -114 -98 -149 -125 -142 -108 4 10 52 102 106 203 55 102 115
214 134 250 48 90 110 205 142 265 15 28 49 91 75 140 26 50 74 137 105 195
31 58 80 148 107 200 28 52 64 120 80 150 17 30 72 134 123 230 51 96 97 181
103 188 5 7 8 14 6 17 -3 2 -32 -31 -67 -74 -34 -42 -70 -86 -80 -97 -10 -10
-24 -28 -32 -40 -8 -12 -35 -45 -60 -74 -25 -29 -79 -94 -120 -145 -303 -372
-515 -631 -520 -635 -3 -3 -44 -52 -90 -110 -47 -58 -87 -107 -90 -110 -3 -3
-34 -41 -70 -85 -35 -44 -67 -82 -70 -85 -3 -3 -32 -38 -64 -78 -32 -40 -62
-75 -66 -77 -7 -4 25 107 112 390 12 39 23 75 24 80 1 6 35 114 74 240 39 127
73 241 76 254 3 14 7 28 10 32 2 4 24 76 49 161 25 84 50 164 55 178 6 14 12
34 15 45 2 11 31 110 65 220 34 110 73 237 86 282 13 45 27 90 30 100 16 44
-18 -11 -81 -132 -58 -111 -147 -277 -315 -590 -20 -38 -61 -115 -90 -170 -29
-55 -67 -127 -85 -160 -18 -33 -53 -98 -78 -145 -83 -158 -124 -235 -154 -290
-16 -30 -62 -117 -102 -192 -40 -76 -77 -141 -83 -144 -6 -4 -9 -3 -6 2 3 5 9
45 12 89 4 44 9 91 11 105 2 14 6 59 9 100 4 41 8 84 10 95 2 11 7 56 10 100
4 44 9 96 11 115 2 19 6 62 10 95 7 79 15 152 20 195 4 31 9 86 20 210 6 67
16 165 20 205 3 22 10 89 15 150 16 173 21 218 25 241 2 12 6 61 10 110 3 49
8 96 10 104 6 22 15 177 10 165 -2 -5 -20 -64 -39 -130 -19 -66 -69 -232 -111
-370 -42 -137 -87 -286 -100 -330 -13 -44 -36 -118 -50 -165 -14 -47 -28 -92
-30 -100 -4 -17 -14 -48 -115 -380 -39 -129 -89 -295 -111 -369 -47 -160 -58
-182 -60 -126 0 22 -2 49 -3 60 -2 11 -6 54 -10 95 -4 41 -9 91 -11 110 -2 19
-7 64 -10 100 -3 36 -8 81 -10 100 -5 44 -14 139 -20 206 -2 28 -6 71 -9 95
-3 24 -8 76 -11 114 -4 39 -8 84 -10 100 -2 17 -7 62 -10 100 -4 39 -8 86 -10
105 -4 34 -10 95 -21 210 -2 30 -7 73 -9 95 -11 111 -15 146 -20 210 -4 39 -8
86 -10 105 -4 41 -14 137 -20 199 -5 58 -15 65 -16 10z m363 -2131 c13 -13 30
-35 37 -50 8 -16 18 -28 23 -28 4 0 8 -5 8 -10 0 -6 27 -51 60 -101 33 -50 60
-95 60 -100 0 -6 5 -7 10 -4 6 3 10 -3 10 -14 0 -12 4 -21 8 -21 5 0 16 -16
25 -36 11 -23 22 -33 30 -28 6 4 9 4 5 0 -9 -10 22 -46 187 -213 76 -78 144
-139 150 -136 5 4 7 3 3 -2 -8 -9 54 -75 65 -68 4 2 7 0 7 -6 0 -13 47 -60 54
-55 3 2 4 1 1 -2 -2 -4 15 -30 38 -58 59 -70 111 -156 123 -201 16 -65 19 -95
13 -120 -5 -16 -11 -45 -14 -63 -3 -18 -24 -72 -47 -120 -23 -48 -41 -90 -40
-94 1 -5 -3 -8 -9 -8 -6 0 -9 -7 -5 -15 3 -8 1 -15 -4 -15 -7 0 -23 -33 -23
-50 0 -3 -7 -10 -16 -17 -9 -7 -13 -13 -9 -13 4 0 -12 -33 -36 -72 -23 -40
-53 -97 -66 -125 -13 -29 -25 -53 -26 -53 -2 0 -15 5 -31 12 -15 6 -31 12 -35
13 -5 2 -11 4 -15 5 -5 1 -11 2 -15 1 -5 0 -8 3 -8 7 0 15 -95 32 -163 29
l-67 -3 7 35 c3 20 6 42 6 49 0 6 4 12 9 12 5 0 8 6 7 13 -1 6 7 33 19 60 12
26 21 50 21 54 -1 3 6 10 15 15 9 5 14 13 11 19 -4 5 -1 9 4 9 6 0 11 6 11 14
0 7 7 19 15 26 9 7 13 15 11 18 -3 2 2 11 10 19 8 8 12 19 9 24 -4 5 -2 9 3 9
8 0 49 81 54 107 1 5 8 14 15 21 7 8 11 18 8 23 -4 5 -2 9 3 9 9 0 49 79 45
90 -1 3 2 10 7 15 9 11 22 73 25 115 3 46 -39 170 -58 170 -4 0 -5 5 -2 10 3
6 1 10 -4 10 -6 0 -11 5 -11 11 0 19 -84 128 -99 128 -8 1 -11 4 -8 8 4 3 -41
56 -100 116 -232 234 -286 296 -332 382 -12 22 -30 54 -40 70 -20 33 -20 116
0 168 14 33 21 34 51 5z"/>
</g>
</svg>
